<?xml version="1.0" encoding="iso-8859-1"?>
<!-- Generator: Adobe Illustrator 21.0.0, SVG Export Plug-In . SVG Version: 6.00 Build 0)  -->
<svg version="1.1" id="Capa_1" xmlns="http://www.w3.org/2000/svg" xmlns:xlink="http://www.w3.org/1999/xlink" x="0px" y="0px"
	 viewBox="0 0 512.071 512.071" style="enable-background:new 0 0 512.071 512.071;" xml:space="preserve">
<g transform="translate(-1)">
	<g>
		<g>
			<path d="M393.569,247.497h-46.182l-40.226-72.414c-1.506-2.707-4.36-4.386-7.458-4.386h-85.333c-3.098,0-5.953,1.679-7.458,4.386
				l-40.226,72.414h-46.182c-4.713,0-8.533,3.82-8.533,8.533s3.82,8.533,8.533,8.533h46.182l40.226,72.414
				c1.506,2.707,4.36,4.386,7.458,4.386h85.333c3.098,0,5.953-1.679,7.458-4.386l40.226-72.414h46.182
				c4.713,0,8.533-3.82,8.533-8.533S398.282,247.497,393.569,247.497z M294.684,324.297h-75.298l-37.922-68.267l37.922-68.267
				h75.298l37.922,68.267L294.684,324.297z"/>
			<path d="M500.253,176.158c-0.085-0.102-0.111-0.239-0.162-0.341c-9.867-29.844-25.149-57.615-45.082-81.92
				c-0.295-0.444-0.635-0.856-1.016-1.229C405.427,34,333.232,0.041,257.07,0.041S108.712,34,60.146,92.668
				c-0.404,0.37-0.767,0.782-1.084,1.229c-19.945,24.302-35.239,52.073-45.116,81.92c-0.051,0.119-0.077,0.256-0.128,0.375
				c-17.091,51.865-17.091,107.845,0,159.71c0.051,0.12,0.077,0.256,0.128,0.375c9.881,29.835,25.175,57.594,45.116,81.886
				c0.295,0.444,0.635,0.856,1.015,1.229c33.4,40.245,78.303,69.32,128.691,83.328c0.484,0.185,0.984,0.325,1.493,0.418
				c43.72,11.856,89.809,11.856,133.53,0c0.515-0.092,1.021-0.232,1.51-0.418c50.378-14.01,95.272-43.082,128.666-83.32
				c0.39-0.375,0.739-0.789,1.041-1.237c19.945-24.302,35.239-52.073,45.116-81.92c0.051-0.12,0.077-0.256,0.128-0.375
				C517.344,284.003,517.344,228.023,500.253,176.158z M326.454,27.422c43.077,13.168,81.565,38.219,111.044,72.277l-6.281,11.264
				H355.92l-37.922-68.267L326.454,27.422z M187.617,27.414l8.457,15.283l-37.922,68.267H82.853l-6.281-11.264
				C106.051,65.638,144.539,40.584,187.617,27.414z M18.102,256.03c-0.003-23.12,3.363-46.117,9.993-68.267h10.59l37.922,68.267
				l-37.922,68.267h-10.59C21.465,302.147,18.099,279.15,18.102,256.03z M187.617,484.638
				c-43.076-13.168-81.565-38.219-111.044-72.277l6.281-11.264h75.298l37.922,68.267L187.617,484.638z M326.454,484.647
				l-8.456-15.283l37.922-68.267h75.298l6.281,11.264C408.02,446.422,369.532,471.477,326.454,484.647z M449.035,398.033
				l-5.359-9.626c-1.505-2.699-4.351-4.373-7.441-4.378h-81.408l-26.701-31.155c-3.098-3.437-8.371-3.779-11.887-0.77
				c-3.516,3.009-3.993,8.272-1.075,11.863l25.395,29.628l-39.782,71.603c-1.428,2.574-1.428,5.703,0,8.277l8.644,15.616
				c-34.482,7.806-70.273,7.806-104.754,0l8.635-15.599c1.428-2.574,1.428-5.703,0-8.277l-39.782-71.603l25.395-29.628
				c2.918-3.592,2.441-8.854-1.075-11.863s-8.789-2.667-11.887,0.77l-26.709,31.138H77.835c-3.096-0.002-5.95,1.673-7.458,4.378
				l-5.342,9.626c-12.898-17.39-23.368-36.455-31.121-56.67h9.788c3.098,0,5.953-1.679,7.458-4.386l42.667-76.8
				c1.434-2.579,1.434-5.716,0-8.294l-42.667-76.8c-1.506-2.707-4.36-4.386-7.458-4.386h-9.788
				c7.753-20.215,18.223-39.28,31.121-56.67l5.359,9.626c1.505,2.699,4.351,4.373,7.441,4.378h81.408l26.701,31.155
				c3.098,3.437,8.371,3.779,11.887,0.77c3.516-3.009,3.993-8.272,1.075-11.863l-25.395-29.628l39.782-71.603
				c1.428-2.574,1.428-5.703,0-8.277l-8.644-15.616c34.482-7.806,70.273-7.806,104.755,0l-8.644,15.616
				c-1.428,2.574-1.428,5.703,0,8.277l39.782,71.603l-25.395,29.628c-2.918,3.592-2.441,8.854,1.075,11.863
				c3.516,3.009,8.789,2.667,11.887-0.77l26.718-31.155h81.408c3.096,0.002,5.95-1.673,7.458-4.378l5.359-9.626
				c12.892,17.391,23.356,36.456,31.104,56.67h-9.788c-3.098,0-5.953,1.679-7.458,4.386l-42.667,76.8
				c-1.434,2.579-1.434,5.716,0,8.294l42.667,76.8c1.506,2.707,4.36,4.386,7.458,4.386h9.788
				C472.403,361.578,461.933,380.643,449.035,398.033z M485.976,324.297h-10.59l-37.922-68.267l37.922-68.267h10.59
				c6.629,22.149,9.995,45.147,9.993,68.267C495.972,279.15,492.605,302.147,485.976,324.297z"/>
		</g>
	</g>
</g>
<g>
</g>
<g>
</g>
<g>
</g>
<g>
</g>
<g>
</g>
<g>
</g>
<g>
</g>
<g>
</g>
<g>
</g>
<g>
</g>
<g>
</g>
<g>
</g>
<g>
</g>
<g>
</g>
<g>
</g>
</svg>
